<svg xmlns="http://www.w3.org/2000/svg" viewBox="0 0 1200 675" width="1200" height="675" role="img" aria-label="Corte a la parrilla de la carta de Kairos">
<defs>
<radialGradient id="kbg" cx="50%" cy="40%" r="76%">
<stop offset="0%" stop-color="#262322"/><stop offset="54%" stop-color="#121111"/><stop offset="100%" stop-color="#060606"/>
</radialGradient>
<radialGradient id="kglow" cx="50%" cy="46%" r="52%">
<stop offset="0%" stop-color="#ff6600" stop-opacity=".28"/><stop offset="100%" stop-color="#ff6600" stop-opacity="0"/>
</radialGradient>
<filter id="kblur" x="-40%" y="-40%" width="180%" height="180%"><feGaussianBlur stdDeviation="16.2"/></filter>
<filter id="ksoft" x="-40%" y="-40%" width="180%" height="180%"><feGaussianBlur stdDeviation="6.1"/></filter>
<radialGradient id="plo" cx="50%" cy="34%" r="72%"><stop offset="0%" stop-color="#33302f"/><stop offset="58%" stop-color="#1d1c1b"/><stop offset="100%" stop-color="#100f0f"/></radialGradient><linearGradient id="plob" x1="0%" y1="0%" x2="0%" y2="100%"><stop offset="0%" stop-color="#ffffff" stop-opacity="0.13"/><stop offset="100%" stop-color="#ffffff" stop-opacity="0"/></linearGradient><linearGradient id="crn" x1="0%" y1="0%" x2="100%" y2="100%"><stop offset="0%" stop-color="#6b3a1c"/><stop offset="40%" stop-color="#4a230f"/><stop offset="100%" stop-color="#2c1207"/></linearGradient><linearGradient id="crn2" x1="0%" y1="0%" x2="20%" y2="100%"><stop offset="0%" stop-color="#8a4c26"/><stop offset="100%" stop-color="#3f1d0c"/></linearGradient><linearGradient id="pap" x1="0%" y1="0%" x2="0%" y2="100%"><stop offset="0%" stop-color="#f0c469"/><stop offset="100%" stop-color="#b9782c"/></linearGradient><linearGradient id="mtq" x1="0%" y1="0%" x2="0%" y2="100%"><stop offset="0%" stop-color="#fff2c4"/><stop offset="100%" stop-color="#eccf76"/></linearGradient>
</defs>
<rect width="1200" height="675" fill="url(#kbg)"/>
<ellipse cx="600.0" cy="310.5" rx="564.0" ry="310.5" fill="url(#kglow)"/>
<g transform="translate(-46.40 -147.30) scale(2.0200)">
<ellipse cx="320.0" cy="302.6" rx="189.3" ry="67.1" fill="#000" opacity="0.55" filter="url(#kblur)"/><ellipse cx="320.0" cy="266.0" rx="182.0" ry="122.0" fill="url(#plo)" stroke="#413e3d" stroke-width="1.5"/><ellipse cx="320.0" cy="269.0" rx="127.4" ry="80.5" fill="#161515" stroke="#454241" stroke-width="1"/><path d="M 142.0 264.0 a 178.0 118.0 0 0 1 356.0 0" fill="none" stroke="#ffffff" stroke-width="2" stroke-linecap="round" stroke-linejoin="round" opacity="0.10"/><g transform="rotate(-8 316 254)"><rect x="222" y="204" width="192" height="104" rx="34" fill="url(#crn)" stroke="#280f05" stroke-width="2"/><rect x="228" y="210" width="180" height="46" rx="26" fill="url(#crn2)" opacity=".55"/><path d="M 252 214 l -16 88" fill="none" stroke="#200c03" stroke-width="8" stroke-linecap="round" stroke-linejoin="round" opacity="0.55"/><path d="M 286 214 l -16 88" fill="none" stroke="#200c03" stroke-width="8" stroke-linecap="round" stroke-linejoin="round" opacity="0.55"/><path d="M 320 214 l -16 88" fill="none" stroke="#200c03" stroke-width="8" stroke-linecap="round" stroke-linejoin="round" opacity="0.55"/><path d="M 354 214 l -16 88" fill="none" stroke="#200c03" stroke-width="8" stroke-linecap="round" stroke-linejoin="round" opacity="0.55"/><path d="M 388 214 l -16 88" fill="none" stroke="#200c03" stroke-width="8" stroke-linecap="round" stroke-linejoin="round" opacity="0.55"/><path d="M 232 236 q 90 -14 176 -4" fill="none" stroke="#c98a4a" stroke-width="2.5" stroke-linecap="round" stroke-linejoin="round" opacity="0.30"/><path d="M 224 292 q 96 20 190 -6 l 0 8 q -96 26 -190 6 Z" fill="#a8422f" opacity="0.85"/></g><ellipse cx="322.0" cy="216.0" rx="34.0" ry="17.0" fill="url(#mtq)" stroke="#c9a544" stroke-width="1" transform="rotate(-8.0 322.0 216.0)"/><ellipse cx="310.0" cy="214.0" rx="4.0" ry="2.6" fill="#4f9a3a" transform="rotate(0.0 310.0 214.0)"/><ellipse cx="322.0" cy="220.0" rx="4.0" ry="2.6" fill="#4f9a3a" transform="rotate(20.0 322.0 220.0)"/><ellipse cx="334.0" cy="214.0" rx="4.0" ry="2.6" fill="#4f9a3a" transform="rotate(40.0 334.0 214.0)"/><ellipse cx="346.0" cy="220.0" rx="4.0" ry="2.6" fill="#4f9a3a" transform="rotate(60.0 346.0 220.0)"/><path d="M 300 228 q 20 14 44 8" fill="none" stroke="#f4dc95" stroke-width="4" stroke-linecap="round" stroke-linejoin="round" opacity="0.5"/><path d="M 424.0 268.0 l 34 -12 l 14 26 l -30 16 Z" fill="url(#pap)" stroke="#8a5518" stroke-width="1.2" stroke-linecap="round" stroke-linejoin="round" transform="rotate(24 424.0 268.0)"/><path d="M 446.0 296.0 l 34 -12 l 14 26 l -30 16 Z" fill="url(#pap)" stroke="#8a5518" stroke-width="1.2" stroke-linecap="round" stroke-linejoin="round" transform="rotate(-16 446.0 296.0)"/><path d="M 410.0 302.0 l 34 -12 l 14 26 l -30 16 Z" fill="url(#pap)" stroke="#8a5518" stroke-width="1.2" stroke-linecap="round" stroke-linejoin="round" transform="rotate(40 410.0 302.0)"/><ellipse cx="418.0" cy="262.0" rx="4.0" ry="3.0" fill="#5f9a3a" transform="rotate(10.0 418.0 262.0)"/><ellipse cx="452.0" cy="292.0" rx="4.0" ry="3.0" fill="#5f9a3a" transform="rotate(-30.0 452.0 292.0)"/><path d="M 196 300 q 34 -26 66 -34" fill="none" stroke="#3f7c2c" stroke-width="3" stroke-linecap="round" stroke-linejoin="round"/><ellipse cx="200.0" cy="296.0" rx="9.0" ry="3.0" fill="#4f9a3a" transform="rotate(-32.0 200.0 296.0)"/><ellipse cx="211.0" cy="290.0" rx="9.0" ry="3.0" fill="#4f9a3a" transform="rotate(-32.0 211.0 290.0)"/><ellipse cx="222.0" cy="284.0" rx="9.0" ry="3.0" fill="#4f9a3a" transform="rotate(-32.0 222.0 284.0)"/><ellipse cx="233.0" cy="278.0" rx="9.0" ry="3.0" fill="#4f9a3a" transform="rotate(-32.0 233.0 278.0)"/><ellipse cx="244.0" cy="272.0" rx="9.0" ry="3.0" fill="#4f9a3a" transform="rotate(-32.0 244.0 272.0)"/><ellipse cx="255.0" cy="266.0" rx="9.0" ry="3.0" fill="#4f9a3a" transform="rotate(-32.0 255.0 266.0)"/><path d="M 294.0 170.0 c 15.0 -18.5 -15.0 -22.4 0 -40.9 c -13.5 -7.9 -7.5 -19.8 5.2 -25.1" fill="none" stroke="#ffffff" stroke-width="3" stroke-linecap="round" stroke-linejoin="round" opacity="0.14" filter="url(#ksoft)"/><path d="M 320.0 170.0 c 15.0 -13.9 -15.0 -16.8 0 -30.7 c -13.5 -5.9 -7.5 -14.8 5.2 -18.8" fill="none" stroke="#ffffff" stroke-width="3" stroke-linecap="round" stroke-linejoin="round" opacity="0.14" filter="url(#ksoft)"/><path d="M 346.0 170.0 c 15.0 -18.5 -15.0 -22.4 0 -40.9 c -13.5 -7.9 -7.5 -19.8 5.2 -25.1" fill="none" stroke="#ffffff" stroke-width="3" stroke-linecap="round" stroke-linejoin="round" opacity="0.14" filter="url(#ksoft)"/><ellipse cx="150.0" cy="150.0" rx="3.0" ry="2.4" fill="#ff9a3d" opacity="0.35"/><ellipse cx="508.0" cy="168.0" rx="3.0" ry="2.4" fill="#ff9a3d" opacity="0.35"/><ellipse cx="128.0" cy="352.0" rx="3.0" ry="2.4" fill="#ff9a3d" opacity="0.35"/><ellipse cx="520.0" cy="344.0" rx="3.0" ry="2.4" fill="#ff9a3d" opacity="0.35"/><ellipse cx="196.0" cy="118.0" rx="3.0" ry="2.4" fill="#ff9a3d" opacity="0.35"/><ellipse cx="462.0" cy="396.0" rx="3.0" ry="2.4" fill="#ff9a3d" opacity="0.35"/>
</g>
<text x="1184" y="661" text-anchor="end" font-family="Inter,system-ui,sans-serif" font-size="18" letter-spacing="2" fill="#6b6a6a">KAIROS</text>
</svg>
