<svg xmlns="http://www.w3.org/2000/svg" viewBox="0 0 640 480" width="640" height="480" role="img" aria-label="Kairos">
<defs>
<radialGradient id="g13" cx="50%" cy="42%" r="68%">
<stop offset="0%" stop-color="#232121"/><stop offset="60%" stop-color="#111010"/><stop offset="100%" stop-color="#070707"/>
</radialGradient>
<radialGradient id="a13" cx="50%" cy="45%" r="45%">
<stop offset="0%" stop-color="#39d6ff" stop-opacity=".30"/><stop offset="100%" stop-color="#39d6ff" stop-opacity="0"/>
</radialGradient>
<filter id="b13"><feGaussianBlur stdDeviation="7"/></filter>
</defs>
<rect width="640" height="480" fill="url(#g13)"/>
<ellipse cx="320" cy="221" rx="269" ry="202" fill="url(#a13)"/>
<ellipse cx="320" cy="278" rx="180" ry="60" fill="#000" opacity=".55" filter="url(#b13)"/>
<ellipse cx="320" cy="250" rx="166" ry="112" fill="#1b1a1a" stroke="#2f2e2e" stroke-width="2"/>
<ellipse cx="320" cy="250" rx="115" ry="78" fill="#141313" stroke="#3a3939" stroke-width="1"/>
<ellipse cx="304" cy="290" rx="25" ry="17" fill="#39d6ff" opacity=".9" transform="rotate(166 304 290)"/>
<ellipse cx="322" cy="262" rx="22" ry="9" fill="#4a4746" opacity=".9" transform="rotate(18 322 262)"/>
<ellipse cx="297" cy="247" rx="11" ry="9" fill="#5d5957" opacity=".9" transform="rotate(175 297 247)"/>
<ellipse cx="311" cy="245" rx="26" ry="8" fill="#5d5957" opacity=".9" transform="rotate(67 311 245)"/>
<ellipse cx="345" cy="218" rx="28" ry="16" fill="#39d6ff" opacity=".9" transform="rotate(65 345 218)"/>
<ellipse cx="305" cy="262" rx="21" ry="12" fill="#332f2e" opacity=".9" transform="rotate(93 305 262)"/>
<ellipse cx="357" cy="230" rx="12" ry="17" fill="#332f2e" opacity=".9" transform="rotate(162 357 230)"/>
<ellipse cx="371" cy="247" rx="22" ry="19" fill="#332f2e" opacity=".9" transform="rotate(112 371 247)"/>
<ellipse cx="304" cy="228" rx="13" ry="10" fill="#39d6ff" opacity=".9" transform="rotate(133 304 228)"/>
<path d="M 154 250 a 166 112 0 0 1 331 0" fill="none" stroke="#39d6ff" stroke-opacity=".35" stroke-width="1.5"/>
<text x="624" y="466" text-anchor="end" font-family="Inter,system-ui,sans-serif" font-size="13" letter-spacing="2" fill="#6b6a6a">KAIROS</text>
</svg>