<svg xmlns="http://www.w3.org/2000/svg" viewBox="0 0 640 480" width="640" height="480" role="img" aria-label="Kairos">
<defs>
<radialGradient id="g16" cx="50%" cy="42%" r="68%">
<stop offset="0%" stop-color="#232121"/><stop offset="60%" stop-color="#111010"/><stop offset="100%" stop-color="#070707"/>
</radialGradient>
<radialGradient id="a16" cx="50%" cy="45%" r="45%">
<stop offset="0%" stop-color="#39ff14" stop-opacity=".30"/><stop offset="100%" stop-color="#39ff14" stop-opacity="0"/>
</radialGradient>
<filter id="b16"><feGaussianBlur stdDeviation="7"/></filter>
</defs>
<rect width="640" height="480" fill="url(#g16)"/>
<ellipse cx="320" cy="221" rx="269" ry="202" fill="url(#a16)"/>
<ellipse cx="320" cy="278" rx="180" ry="60" fill="#000" opacity=".55" filter="url(#b16)"/>
<ellipse cx="320" cy="250" rx="166" ry="112" fill="#1b1a1a" stroke="#2f2e2e" stroke-width="2"/>
<ellipse cx="320" cy="250" rx="115" ry="78" fill="#141313" stroke="#3a3939" stroke-width="1"/>
<ellipse cx="293" cy="253" rx="14" ry="7" fill="#39ff14" opacity=".9" transform="rotate(168 293 253)"/>
<ellipse cx="314" cy="234" rx="10" ry="11" fill="#4a4746" opacity=".9" transform="rotate(85 314 234)"/>
<ellipse cx="287" cy="213" rx="16" ry="16" fill="#332f2e" opacity=".9" transform="rotate(154 287 213)"/>
<ellipse cx="319" cy="290" rx="23" ry="8" fill="#332f2e" opacity=".9" transform="rotate(116 319 290)"/>
<ellipse cx="277" cy="230" rx="29" ry="16" fill="#39ff14" opacity=".9" transform="rotate(92 277 230)"/>
<ellipse cx="317" cy="286" rx="19" ry="13" fill="#5d5957" opacity=".9" transform="rotate(44 317 286)"/>
<ellipse cx="347" cy="244" rx="15" ry="8" fill="#4a4746" opacity=".9" transform="rotate(1 347 244)"/>
<ellipse cx="295" cy="247" rx="16" ry="11" fill="#4a4746" opacity=".9" transform="rotate(116 295 247)"/>
<ellipse cx="368" cy="263" rx="24" ry="7" fill="#39ff14" opacity=".9" transform="rotate(125 368 263)"/>
<path d="M 154 250 a 166 112 0 0 1 331 0" fill="none" stroke="#39ff14" stroke-opacity=".35" stroke-width="1.5"/>
<text x="624" y="466" text-anchor="end" font-family="Inter,system-ui,sans-serif" font-size="13" letter-spacing="2" fill="#6b6a6a">KAIROS</text>
</svg>