<svg xmlns="http://www.w3.org/2000/svg" viewBox="0 0 640 480" width="640" height="480" role="img" aria-label="Kairos">
<defs>
<radialGradient id="g11" cx="50%" cy="42%" r="68%">
<stop offset="0%" stop-color="#232121"/><stop offset="60%" stop-color="#111010"/><stop offset="100%" stop-color="#070707"/>
</radialGradient>
<radialGradient id="a11" cx="50%" cy="45%" r="45%">
<stop offset="0%" stop-color="#ff6600" stop-opacity=".30"/><stop offset="100%" stop-color="#ff6600" stop-opacity="0"/>
</radialGradient>
<filter id="b11"><feGaussianBlur stdDeviation="7"/></filter>
</defs>
<rect width="640" height="480" fill="url(#g11)"/>
<ellipse cx="320" cy="221" rx="269" ry="202" fill="url(#a11)"/>
<ellipse cx="320" cy="278" rx="180" ry="60" fill="#000" opacity=".55" filter="url(#b11)"/>
<ellipse cx="320" cy="250" rx="166" ry="112" fill="#1b1a1a" stroke="#2f2e2e" stroke-width="2"/>
<ellipse cx="320" cy="250" rx="115" ry="78" fill="#141313" stroke="#3a3939" stroke-width="1"/>
<ellipse cx="361" cy="220" rx="25" ry="12" fill="#ff6600" opacity=".9" transform="rotate(150 361 220)"/>
<ellipse cx="341" cy="284" rx="22" ry="16" fill="#5d5957" opacity=".9" transform="rotate(24 341 284)"/>
<ellipse cx="302" cy="254" rx="25" ry="15" fill="#332f2e" opacity=".9" transform="rotate(10 302 254)"/>
<ellipse cx="292" cy="237" rx="22" ry="14" fill="#5d5957" opacity=".9" transform="rotate(40 292 237)"/>
<ellipse cx="277" cy="223" rx="11" ry="8" fill="#ff6600" opacity=".9" transform="rotate(61 277 223)"/>
<ellipse cx="274" cy="228" rx="18" ry="17" fill="#5d5957" opacity=".9" transform="rotate(132 274 228)"/>
<ellipse cx="323" cy="268" rx="22" ry="12" fill="#4a4746" opacity=".9" transform="rotate(71 323 268)"/>
<ellipse cx="284" cy="265" rx="23" ry="11" fill="#4a4746" opacity=".9" transform="rotate(58 284 265)"/>
<ellipse cx="307" cy="249" rx="21" ry="8" fill="#ff6600" opacity=".9" transform="rotate(27 307 249)"/>
<ellipse cx="339" cy="232" rx="26" ry="7" fill="#4a4746" opacity=".9" transform="rotate(53 339 232)"/>
<path d="M 154 250 a 166 112 0 0 1 331 0" fill="none" stroke="#ff6600" stroke-opacity=".35" stroke-width="1.5"/>
<text x="624" y="466" text-anchor="end" font-family="Inter,system-ui,sans-serif" font-size="13" letter-spacing="2" fill="#6b6a6a">KAIROS</text>
</svg>